<?xml version="1.0" encoding="utf-8"?>
<!-- Generated by Mocodo 4.2.8 -->
<svg width="406" height="397" viewBox="0 0 406 397" xmlns="http://www.w3.org/2000/svg">
<rect x="0" y="0" width="406" height="397" fill="none" stroke="none" stroke-width="0"/>

<!-- Association BELONGS_TO -->
<g>
	<line x1="50" y1="43" x2="164" y2="43" stroke="#726f83" stroke-width="2"/>
	<line x1="164" y1="186" x2="164" y2="43" stroke="#726f83" stroke-width="2"/>
	<g>
		<path d="M191 18 a14 14 90 0 1 14 14 V43 h-82 V32 a14 14 90 0 1 14 -14" fill="#b2bba4" stroke="#b2bba4" stroke-width="0"/>
		<path d="M205 43 v11 a14 14 90 0 1 -14 14 H137 a14 14 90 0 1 -14 -14 V43 H82" fill="#ccd6ba" stroke="#ccd6ba" stroke-width="0"/>
		<rect x="123" y="18" width="82" height="50" fill="none" rx="14" stroke="#85956b" stroke-width="2"/>
		<line x1="123" y1="43" x2="205" y2="43" stroke="#85956b" stroke-width="1"/>
		<text x="130" y="35.75" fill="#27360c" font-family="Verdana" font-size="12">Belongs_to</text>
	</g>
	<text x="96" y="60" fill="#726f83" font-family="Verdana" font-size="12">1,N</text>
	<text x="137" y="85" fill="#726f83" font-family="Verdana" font-size="12">0,N</text>
</g>

<!-- Association SAVES -->
<g>
	<line x1="362" y1="186" x2="263" y2="43" stroke="#726f83" stroke-width="2"/>
	<line x1="164" y1="186" x2="263" y2="43" stroke="#726f83" stroke-width="2"/>
	<g>
		<path d="M275 18 a14 14 90 0 1 14 14 V43 h-52 V32 a14 14 90 0 1 14 -14" fill="#b2bba4" stroke="#b2bba4" stroke-width="0"/>
		<path d="M289 43 v11 a14 14 90 0 1 -14 14 H251 a14 14 90 0 1 -14 -14 V43 H52" fill="#ccd6ba" stroke="#ccd6ba" stroke-width="0"/>
		<rect x="237" y="18" width="52" height="50" fill="none" rx="14" stroke="#85956b" stroke-width="2"/>
		<line x1="237" y1="43" x2="289" y2="43" stroke="#85956b" stroke-width="1"/>
		<text x="245" y="35.75" fill="#27360c" font-family="Verdana" font-size="12">Saves</text>
	</g>
	<text x="332.64" y="136" fill="#726f83" font-family="Verdana" font-size="12">0,N</text>
	<text x="200" y="152.94" fill="#726f83" font-family="Verdana" font-size="12">0,N</text>
</g>

<!-- Association ADDS -->
<g>
	<line x1="164" y1="186" x2="263" y2="186" stroke="#726f83" stroke-width="2"/>
	<line x1="362" y1="186" x2="263" y2="186" stroke="#726f83" stroke-width="2"/>
	<g>
		<path d="M271 161 a14 14 90 0 1 14 14 V186 h-44 V175 a14 14 90 0 1 14 -14" fill="#b2bba4" stroke="#b2bba4" stroke-width="0"/>
		<path d="M285 186 v11 a14 14 90 0 1 -14 14 H255 a14 14 90 0 1 -14 -14 V186 H44" fill="#ccd6ba" stroke="#ccd6ba" stroke-width="0"/>
		<rect x="241" y="161" width="44" height="50" fill="none" rx="14" stroke="#85956b" stroke-width="2"/>
		<line x1="241" y1="186" x2="285" y2="186" stroke="#85956b" stroke-width="1"/>
		<text x="248" y="178.75" fill="#27360c" font-family="Verdana" font-size="12">Adds</text>
	</g>
	<text x="200" y="203" fill="#726f83" font-family="Verdana" font-size="12">1,1</text>
	<text x="300" y="203" fill="#726f83" font-family="Verdana" font-size="12">0,N</text>
</g>

<!-- Association HAS -->
<g>
	<line x1="164" y1="186" x2="164" y2="346" stroke="#726f83" stroke-width="2"/>
	<line x1="263" y1="346" x2="164" y2="346" stroke="#726f83" stroke-width="2"/>
	<g>
		<path d="M169 321 a14 14 90 0 1 14 14 V346 h-38 V335 a14 14 90 0 1 14 -14" fill="#b2bba4" stroke="#b2bba4" stroke-width="0"/>
		<path d="M183 346 v11 a14 14 90 0 1 -14 14 H159 a14 14 90 0 1 -14 -14 V346 H38" fill="#ccd6ba" stroke="#ccd6ba" stroke-width="0"/>
		<rect x="145" y="321" width="38" height="50" fill="none" rx="14" stroke="#85956b" stroke-width="2"/>
		<line x1="145" y1="346" x2="183" y2="346" stroke="#85956b" stroke-width="1"/>
		<text x="153" y="338.75" fill="#27360c" font-family="Verdana" font-size="12">Has</text>
	</g>
	<text x="169" y="296" fill="#726f83" font-family="Verdana" font-size="12">0,N</text>
	<text x="194" y="363" fill="#726f83" font-family="Verdana" font-size="12">1,1</text>
</g>

<!-- Association POSTS -->
<g>
	<line x1="362" y1="186" x2="362" y2="346" stroke="#726f83" stroke-width="2"/>
	<line x1="263" y1="346" x2="362" y2="346" stroke="#726f83" stroke-width="2"/>
	<g>
		<path d="M372 321 a14 14 90 0 1 14 14 V346 h-48 V335 a14 14 90 0 1 14 -14" fill="#b2bba4" stroke="#b2bba4" stroke-width="0"/>
		<path d="M386 346 v11 a14 14 90 0 1 -14 14 H352 a14 14 90 0 1 -14 -14 V346 H48" fill="#ccd6ba" stroke="#ccd6ba" stroke-width="0"/>
		<rect x="338" y="321" width="48" height="50" fill="none" rx="14" stroke="#85956b" stroke-width="2"/>
		<line x1="338" y1="346" x2="386" y2="346" stroke="#85956b" stroke-width="1"/>
		<text x="346" y="338.75" fill="#27360c" font-family="Verdana" font-size="12">Posts</text>
	</g>
	<text x="367" y="245" fill="#726f83" font-family="Verdana" font-size="12">0,N</text>
	<text x="311" y="363" fill="#726f83" font-family="Verdana" font-size="12">1,1</text>
</g>

<!-- Entity CATEGORY -->
<g>
	<g>
		<rect x="9" y="9" width="82" height="25" fill="#97b8ff" stroke="none" stroke-width="0" opacity="1"/>
		<rect x="9" y="34" width="82" height="43" fill="#c0d4ff" stroke="none" stroke-width="0" opacity="1"/>
		<rect x="9" y="9" width="82" height="68" fill="none" stroke="#578dff" stroke-width="2" opacity="1"/>
		<line x1="9" y1="34" x2="91" y2="34" stroke="#578dff" stroke-width="1"/>
	</g>
	<text x="22" y="26.75" fill="#131114" font-family="Verdana" font-size="12">Category</text>
	<text x="14" y="51.8" fill="#3e3c42" font-family="Verdana" font-size="12">category_id</text>
	<line x1="14" y1="54" x2="86" y2="54" stroke="#3e3c42" stroke-width="1"/>
	<text x="14" y="68.8" fill="#3e3c42" font-family="Verdana" font-size="12">name</text>
</g>

<!-- Entity PLACE -->
<g>
	<g>
		<rect x="133" y="93" width="62" height="25" fill="#97b8ff" stroke="none" stroke-width="0" opacity="1"/>
		<rect x="133" y="118" width="62" height="161" fill="#c0d4ff" stroke="none" stroke-width="0" opacity="1"/>
		<rect x="133" y="93" width="62" height="186" fill="none" stroke="#578dff" stroke-width="2" opacity="1"/>
		<line x1="133" y1="118" x2="195" y2="118" stroke="#578dff" stroke-width="1"/>
	</g>
	<text x="148" y="110.75" fill="#131114" font-family="Verdana" font-size="12">Place</text>
	<text x="138" y="135.8" fill="#3e3c42" font-family="Verdana" font-size="12">place_id</text>
	<line x1="138" y1="138" x2="189" y2="138" stroke="#3e3c42" stroke-width="1"/>
	<text x="138" y="152.8" fill="#3e3c42" font-family="Verdana" font-size="12">name</text>
	<text x="138" y="169.8" fill="#3e3c42" font-family="Verdana" font-size="12">street</text>
	<text x="138" y="186.8" fill="#3e3c42" font-family="Verdana" font-size="12">zip</text>
	<text x="138" y="203.8" fill="#3e3c42" font-family="Verdana" font-size="12">city</text>
	<text x="138" y="220.8" fill="#3e3c42" font-family="Verdana" font-size="12">country</text>
	<text x="138" y="237.8" fill="#3e3c42" font-family="Verdana" font-size="12">lat</text>
	<text x="138" y="254.8" fill="#3e3c42" font-family="Verdana" font-size="12">long</text>
	<text x="138" y="271.8" fill="#3e3c42" font-family="Verdana" font-size="12">image</text>
</g>

<!-- Entity USER -->
<g>
	<g>
		<rect x="327" y="144" width="70" height="25" fill="#97b8ff" stroke="none" stroke-width="0" opacity="1"/>
		<rect x="327" y="169" width="70" height="59" fill="#c0d4ff" stroke="none" stroke-width="0" opacity="1"/>
		<rect x="327" y="144" width="70" height="84" fill="none" stroke="#578dff" stroke-width="2" opacity="1"/>
		<line x1="327" y1="169" x2="397" y2="169" stroke="#578dff" stroke-width="1"/>
	</g>
	<text x="348" y="161.75" fill="#131114" font-family="Verdana" font-size="12">User</text>
	<text x="332" y="186.8" fill="#3e3c42" font-family="Verdana" font-size="12">email</text>
	<line x1="332" y1="189" x2="366" y2="189" stroke="#3e3c42" stroke-width="1"/>
	<text x="332" y="203.8" fill="#3e3c42" font-family="Verdana" font-size="12">nickname</text>
	<text x="332" y="220.8" fill="#3e3c42" font-family="Verdana" font-size="12">password</text>
</g>

<!-- Entity COMMENT -->
<g>
	<g>
		<rect x="220" y="304" width="86" height="25" fill="#97b8ff" stroke="none" stroke-width="0" opacity="1"/>
		<rect x="220" y="329" width="86" height="59" fill="#c0d4ff" stroke="none" stroke-width="0" opacity="1"/>
		<rect x="220" y="304" width="86" height="84" fill="none" stroke="#578dff" stroke-width="2" opacity="1"/>
		<line x1="220" y1="329" x2="306" y2="329" stroke="#578dff" stroke-width="1"/>
	</g>
	<text x="234" y="321.75" fill="#131114" font-family="Verdana" font-size="12">Comment</text>
	<text x="225" y="346.8" fill="#3e3c42" font-family="Verdana" font-size="12">comment_id</text>
	<line x1="225" y1="349" x2="301" y2="349" stroke="#3e3c42" stroke-width="1"/>
	<text x="225" y="363.8" fill="#3e3c42" font-family="Verdana" font-size="12">rate</text>
	<text x="225" y="380.8" fill="#3e3c42" font-family="Verdana" font-size="12">content</text>
</g>
</svg>