<?xml version="1.0" encoding="utf-8"?>
<!-- Generated by Mocodo 4.2.8 -->
<svg width="709" height="397" viewBox="0 0 709 397" xmlns="http://www.w3.org/2000/svg">
<rect x="0" y="0" width="709" height="397" fill="none" stroke="none" stroke-width="0"/>

<!-- Association BELONGS_TO -->
<g>
	<line x1="86" y1="43" x2="291" y2="43" stroke="#726f83" stroke-width="2"/>
	<line x1="291" y1="186" x2="291" y2="43" stroke="#726f83" stroke-width="2"/>
	<g>
		<path d="M352 18 a14 14 90 0 1 14 14 V43 h-150 V32 a14 14 90 0 1 14 -14" fill="#b2bba4" stroke="#b2bba4" stroke-width="0"/>
		<path d="M366 43 v11 a14 14 90 0 1 -14 14 H230 a14 14 90 0 1 -14 -14 V43 H150" fill="#ccd6ba" stroke="#ccd6ba" stroke-width="0"/>
		<rect x="216" y="18" width="150" height="50" fill="none" rx="14" stroke="#85956b" stroke-width="2"/>
		<line x1="216" y1="43" x2="366" y2="43" stroke="#85956b" stroke-width="1"/>
		<text x="224" y="35.75" fill="#27360c" font-family="Verdana" font-size="12">Belongs_to</text>
	</g>
	<text x="168" y="60" fill="#726f83" font-family="Verdana" font-size="12">1,N</text>
	<text x="243" y="85" fill="#726f83" font-family="Verdana" font-size="12">0,N</text>
</g>

<!-- Association SAVES -->
<g>
	<line x1="636" y1="186" x2="463" y2="43" stroke="#726f83" stroke-width="2"/>
	<line x1="291" y1="186" x2="463" y2="43" stroke="#726f83" stroke-width="2"/>
	<g>
		<path d="M493 18 a14 14 90 0 1 14 14 V43 h-88 V32 a14 14 90 0 1 14 -14" fill="#b2bba4" stroke="#b2bba4" stroke-width="0"/>
		<path d="M507 43 v11 a14 14 90 0 1 -14 14 H433 a14 14 90 0 1 -14 -14 V43 H88" fill="#ccd6ba" stroke="#ccd6ba" stroke-width="0"/>
		<rect x="419" y="18" width="88" height="50" fill="none" rx="14" stroke="#85956b" stroke-width="2"/>
		<line x1="419" y1="43" x2="507" y2="43" stroke="#85956b" stroke-width="1"/>
		<text x="427" y="35.75" fill="#27360c" font-family="Verdana" font-size="12">Saves</text>
	</g>
	<text x="593.74" y="144" fill="#726f83" font-family="Verdana" font-size="12">0,N</text>
	<text x="352" y="150.29" fill="#726f83" font-family="Verdana" font-size="12">0,N</text>
</g>

<!-- Association ADDS -->
<g>
	<line x1="291" y1="186" x2="463" y2="186" stroke="#726f83" stroke-width="2"/>
	<line x1="636" y1="186" x2="463" y2="186" stroke="#726f83" stroke-width="2"/>
	<g>
		<path d="M486 161 a14 14 90 0 1 14 14 V186 h-74 V175 a14 14 90 0 1 14 -14" fill="#b2bba4" stroke="#b2bba4" stroke-width="0"/>
		<path d="M500 186 v11 a14 14 90 0 1 -14 14 H440 a14 14 90 0 1 -14 -14 V186 H74" fill="#ccd6ba" stroke="#ccd6ba" stroke-width="0"/>
		<rect x="426" y="161" width="74" height="50" fill="none" rx="14" stroke="#85956b" stroke-width="2"/>
		<line x1="426" y1="186" x2="500" y2="186" stroke="#85956b" stroke-width="1"/>
		<text x="433" y="178.75" fill="#27360c" font-family="Verdana" font-size="12">Adds</text>
	</g>
	<text x="352" y="203" fill="#726f83" font-family="Verdana" font-size="12">1,1</text>
	<text x="524" y="203" fill="#726f83" font-family="Verdana" font-size="12">0,N</text>
</g>

<!-- Association HAS -->
<g>
	<line x1="291" y1="186" x2="291" y2="346" stroke="#726f83" stroke-width="2"/>
	<line x1="463" y1="346" x2="291" y2="346" stroke="#726f83" stroke-width="2"/>
	<g>
		<path d="M307 321 a14 14 90 0 1 14 14 V346 h-60 V335 a14 14 90 0 1 14 -14" fill="#b2bba4" stroke="#b2bba4" stroke-width="0"/>
		<path d="M321 346 v11 a14 14 90 0 1 -14 14 H275 a14 14 90 0 1 -14 -14 V346 H60" fill="#ccd6ba" stroke="#ccd6ba" stroke-width="0"/>
		<rect x="261" y="321" width="60" height="50" fill="none" rx="14" stroke="#85956b" stroke-width="2"/>
		<line x1="261" y1="346" x2="321" y2="346" stroke="#85956b" stroke-width="1"/>
		<text x="268" y="338.75" fill="#27360c" font-family="Verdana" font-size="12">Has</text>
	</g>
	<text x="296" y="296" fill="#726f83" font-family="Verdana" font-size="12">0,N</text>
	<text x="337" y="363" fill="#726f83" font-family="Verdana" font-size="12">1,1</text>
</g>

<!-- Association POSTS -->
<g>
	<line x1="636" y1="186" x2="636" y2="346" stroke="#726f83" stroke-width="2"/>
	<line x1="463" y1="346" x2="636" y2="346" stroke="#726f83" stroke-width="2"/>
	<g>
		<path d="M661 321 a14 14 90 0 1 14 14 V346 h-78 V335 a14 14 90 0 1 14 -14" fill="#b2bba4" stroke="#b2bba4" stroke-width="0"/>
		<path d="M675 346 v11 a14 14 90 0 1 -14 14 H611 a14 14 90 0 1 -14 -14 V346 H78" fill="#ccd6ba" stroke="#ccd6ba" stroke-width="0"/>
		<rect x="597" y="321" width="78" height="50" fill="none" rx="14" stroke="#85956b" stroke-width="2"/>
		<line x1="597" y1="346" x2="675" y2="346" stroke="#85956b" stroke-width="1"/>
		<text x="604" y="338.75" fill="#27360c" font-family="Verdana" font-size="12">Posts</text>
	</g>
	<text x="641" y="237" fill="#726f83" font-family="Verdana" font-size="12">0,N</text>
	<text x="549" y="363" fill="#726f83" font-family="Verdana" font-size="12">1,1</text>
</g>

<!-- Entity CATEGORY -->
<g>
	<g>
		<rect x="9" y="9" width="154" height="25" fill="#97b8ff" stroke="none" stroke-width="0" opacity="1"/>
		<rect x="9" y="34" width="154" height="43" fill="#c0d4ff" stroke="none" stroke-width="0" opacity="1"/>
		<rect x="9" y="9" width="154" height="68" fill="none" stroke="#578dff" stroke-width="2" opacity="1"/>
		<line x1="9" y1="34" x2="163" y2="34" stroke="#578dff" stroke-width="1"/>
	</g>
	<text x="31" y="26.75" fill="#131114" font-family="Verdana" font-size="12">Category</text>
	<text x="14" y="51.8" fill="#3e3c42" font-family="Verdana" font-size="12">category_id</text>
	<line x1="14" y1="54" x2="157" y2="54" stroke="#3e3c42" stroke-width="1"/>
	<text x="14" y="68.8" fill="#3e3c42" font-family="Verdana" font-size="12">name</text>
</g>

<!-- Entity PLACE -->
<g>
	<g>
		<rect x="235" y="93" width="112" height="25" fill="#97b8ff" stroke="none" stroke-width="0" opacity="1"/>
		<rect x="235" y="118" width="112" height="161" fill="#c0d4ff" stroke="none" stroke-width="0" opacity="1"/>
		<rect x="235" y="93" width="112" height="186" fill="none" stroke="#578dff" stroke-width="2" opacity="1"/>
		<line x1="235" y1="118" x2="347" y2="118" stroke="#578dff" stroke-width="1"/>
	</g>
	<text x="260" y="110.75" fill="#131114" font-family="Verdana" font-size="12">Place</text>
	<text x="240" y="135.8" fill="#3e3c42" font-family="Verdana" font-size="12">place_id</text>
	<line x1="240" y1="138" x2="341" y2="138" stroke="#3e3c42" stroke-width="1"/>
	<text x="240" y="152.8" fill="#3e3c42" font-family="Verdana" font-size="12">name</text>
	<text x="240" y="169.8" fill="#3e3c42" font-family="Verdana" font-size="12">street</text>
	<text x="240" y="186.8" fill="#3e3c42" font-family="Verdana" font-size="12">zip</text>
	<text x="240" y="203.8" fill="#3e3c42" font-family="Verdana" font-size="12">city</text>
	<text x="240" y="220.8" fill="#3e3c42" font-family="Verdana" font-size="12">country</text>
	<text x="240" y="237.8" fill="#3e3c42" font-family="Verdana" font-size="12">lat</text>
	<text x="240" y="254.8" fill="#3e3c42" font-family="Verdana" font-size="12">long</text>
	<text x="240" y="271.8" fill="#3e3c42" font-family="Verdana" font-size="12">image</text>
</g>

<!-- Entity USER -->
<g>
	<g>
		<rect x="572" y="152" width="128" height="25" fill="#97b8ff" stroke="none" stroke-width="0" opacity="1"/>
		<rect x="572" y="177" width="128" height="43" fill="#c0d4ff" stroke="none" stroke-width="0" opacity="1"/>
		<rect x="572" y="152" width="128" height="68" fill="none" stroke="#578dff" stroke-width="2" opacity="1"/>
		<line x1="572" y1="177" x2="700" y2="177" stroke="#578dff" stroke-width="1"/>
	</g>
	<text x="608" y="169.75" fill="#131114" font-family="Verdana" font-size="12">User</text>
	<text x="577" y="194.8" fill="#3e3c42" font-family="Verdana" font-size="12">email</text>
	<line x1="577" y1="197" x2="643" y2="197" stroke="#3e3c42" stroke-width="1"/>
	<text x="577" y="211.8" fill="#3e3c42" font-family="Verdana" font-size="12">nickname</text>
</g>

<!-- Entity COMMENT -->
<g>
	<g>
		<rect x="382" y="304" width="162" height="25" fill="#97b8ff" stroke="none" stroke-width="0" opacity="1"/>
		<rect x="382" y="329" width="162" height="59" fill="#c0d4ff" stroke="none" stroke-width="0" opacity="1"/>
		<rect x="382" y="304" width="162" height="84" fill="none" stroke="#578dff" stroke-width="2" opacity="1"/>
		<line x1="382" y1="329" x2="544" y2="329" stroke="#578dff" stroke-width="1"/>
	</g>
	<text x="404" y="321.75" fill="#131114" font-family="Verdana" font-size="12">Comment</text>
	<text x="387" y="346.8" fill="#3e3c42" font-family="Verdana" font-size="12">comment_id</text>
	<line x1="387" y1="349" x2="538" y2="349" stroke="#3e3c42" stroke-width="1"/>
	<text x="387" y="363.8" fill="#3e3c42" font-family="Verdana" font-size="12">rate</text>
	<text x="387" y="380.8" fill="#3e3c42" font-family="Verdana" font-size="12">content</text>
</g>
</svg>